<?xml version="1.0" ?><!DOCTYPE svg  PUBLIC '-//W3C//DTD SVG 1.1//EN'  'http://www.w3.org/Graphics/SVG/1.1/DTD/svg11.dtd'><svg enable-background="new 0 0 128 128" id="Слой_1" version="1.1" viewBox="0 0 128 128" xml:space="preserve" xmlns="http://www.w3.org/2000/svg" xmlns:xlink="http://www.w3.org/1999/xlink"><g><path d="M123.9,93.6c0.1-1.6,0.1-3.3-0.2-4.9c-1.4-7.5-7.2-13.6-15-14.6c-2.5-0.3-4.8-0.1-7,0.5   c-1.8,0.5-3.6,0.5-5.4,0c-2.2-0.6-4.6-0.9-7-0.5c-7.7,1-13.6,7.1-14.9,14.6C74,90.3,74,92,74.1,93.6l1.2,14   c0.6,6.4,4.3,12.2,10.1,15c3.7,1.8,7.2,1.9,10.8,0.8c1.8-0.5,3.6-0.5,5.4,0c3.6,1,7.1,1,10.8-0.8c5.8-2.8,9.5-8.6,10.1-15   L123.9,93.6z" fill="#A0C279"/><g><path d="M111.5,74.7c-0.9-0.3-1.8-0.5-2.7-0.6c-1.6-0.2-3.2-0.2-4.8,0.1c0.8,0.1,1.5,0.3,2.3,0.5    C108,75.2,109.8,75.2,111.5,74.7z" fill="#A0C279"/><path d="M106.3,123.3c-0.8,0.2-1.5,0.4-2.3,0.5c2.3,0.3,4.6,0.2,7-0.7C109.4,122.8,107.8,122.9,106.3,123.3z" fill="#A0C279"/><path d="M85.4,107.6l-1.2-14C84,92,84,90.3,84.3,88.7c1.2-6.6,5.9-12.1,12.2-14c-0.1,0-0.2,0-0.2-0.1    c-2.2-0.6-4.6-0.9-7-0.5c-7.7,1-13.6,7.1-14.9,14.6C74,90.3,74,92,74.1,93.6l1.2,14c0.6,6.4,4.3,12.2,10.1,15    c3.7,1.8,7.2,1.9,10.8,0.8c0.2-0.1,0.5-0.1,0.8-0.2c-0.5-0.2-1-0.4-1.6-0.6C89.7,119.8,85.9,114,85.4,107.6z" opacity="0.1"/><path d="M101.7,74.7c0.7-0.2,1.5-0.4,2.3-0.5c-1.5-0.2-3.1-0.3-4.8-0.1c-0.9,0.1-1.8,0.3-2.7,0.6    C98.2,75.2,100,75.2,101.7,74.7z" fill="#A0C279"/><path d="M97,123.2c2.4,0.8,4.6,1,7,0.7c-0.8-0.1-1.5-0.3-2.3-0.5C100.2,122.9,98.6,122.8,97,123.2z" fill="#A0C279"/></g><path d="M51,124H17c-5.5,0-10-4.5-10-10V43c0-5.7,2.5-11.2,6.8-15L24,19h20l10.2,9c4.3,3.8,6.8,9.3,6.8,15v71   C61,119.5,56.5,124,51,124z" fill="#E4F3F1"/><polyline fill="#FFF7E7" points="7,47 34.4,47 34.4,101 7,101  "/><g opacity="0.1"><path d="M17,114V43c0-5.7,2.5-11.2,6.8-15L34,19H24l-10.2,9C9.5,31.8,7,37.3,7,43v71c0,5.5,4.5,10,10,10h10    C21.5,124,17,119.5,17,114z"/></g><rect fill="#A5A4AA" height="15" width="20.8" x="24" y="4"/><g opacity="0.1"><rect height="15" width="7" x="24" y="4"/></g><path d="M44.8,1.5H24c-1.4,0-2.5,1.1-2.5,2.5v13.9l-9.4,8.3C7.3,30.4,4.5,36.6,4.5,43v71c0,6.9,5.6,12.5,12.5,12.5   h34c6.9,0,12.5-5.6,12.5-12.5V43c0-6.5-2.8-12.6-7.6-16.9l-8.6-7.6V4C47.3,2.6,46.2,1.5,44.8,1.5z M26.5,6.5h15.8v10H26.5V6.5z    M9.5,49.5l22.4,0v49l-22.4,0V49.5z M58.5,43v71c0,4.1-3.4,7.5-7.5,7.5H17c-4.1,0-7.5-3.4-7.5-7.5v-10.5l24.9,0   c1.4,0,2.5-1.1,2.5-2.5V47c0-0.7-0.3-1.3-0.7-1.8c-0.5-0.5-1.1-0.7-1.8-0.7l-24.9,0V43c0-5,2.2-9.8,5.9-13.1l9.5-8.4h18.1l9.5,8.4   C56.3,33.2,58.5,38,58.5,43z" fill="#62355C"/><path d="M109,67.6c1.4,0,2.5-1.1,2.5-2.5s-1.1-2.5-2.5-2.5c-5.9,0-10.9,4.1-12.2,9.7c-2.6-0.7-5.2-0.9-7.9-0.6   c-8.6,1.1-15.5,7.8-17.1,16.6c-0.3,1.7-0.4,3.5-0.2,5.6l1.2,14c0.7,7.4,5.1,13.9,11.5,17c4.1,1.9,8.1,2.3,12.6,1   c1.3-0.4,2.7-0.4,4,0c1.8,0.5,3.5,0.8,5.2,0.8c2.5,0,4.9-0.6,7.4-1.7c6.5-3.1,10.9-9.6,11.5-17l1.2-14c0.2-2.1,0.1-3.9-0.2-5.6   c-1.6-8.8-8.5-15.5-17.1-16.6c-2.3-0.3-4.7-0.2-6.9,0.3C103.3,69.4,106,67.6,109,67.6z M108.4,76.6c6.5,0.8,11.6,5.9,12.8,12.5   c0.2,1.2,0.3,2.6,0.1,4.2l-1.2,14c-0.5,5.7-3.8,10.6-8.7,12.9c-2.9,1.4-5.7,1.6-9,0.7c-1.1-0.3-2.3-0.5-3.4-0.5s-2.3,0.2-3.4,0.5   c-3.3,1-6.1,0.8-9-0.7c-4.9-2.3-8.2-7.3-8.7-12.9l-1.2-14c-0.1-1.6-0.1-3,0.1-4.2c1.2-6.7,6.4-11.7,12.8-12.5c2-0.3,4.1-0.1,6,0.5   c2.2,0.6,4.6,0.6,6.8,0C104.4,76.5,106.4,76.4,108.4,76.6z" fill="#62355C"/><path d="M27,64" fill="#FFF7E7"/><path d="M7,64" fill="#FFF7E7"/><path d="M27,84" fill="#FFF7E7"/><path d="M7,84" fill="#FFF7E7"/></g></svg>